<svg width="198.41268288486472" height="122.16000175476074"><defs id="SvgjsDefs2312"></defs><g id="main_text" rel="mainfill" name="main_text" xmlns:name="mainText_mainfill" fill="#ed0624" transform="translate(42.604340013828235, 88.22400093078613)"><path d="M5.964 13.776 l6.72 15.54 l0.056 0 l6.776 -15.54 l3.416 0 l0 19.824 l-2.352 0 l0 -16.632 l-0.056 0 l-7.112 16.632 l-1.428 0 l-7.112 -16.632 l-0.056 0 l0 16.632 l-2.352 0 l0 -19.824 l3.5 0 z M33.712 20.160000000000004 q3.052 0 4.984 1.89 t2.016 4.998 q0 2.996 -1.96 4.914 t-5.04 1.974 q-3.08 0 -5.012 -1.946 t-1.988 -4.942 q0 -3.024 1.96 -4.942 t5.04 -1.946 z M29.064 27.048000000000002 q0 2.156 1.302 3.486 t3.346 1.386 q2.044 0 3.332 -1.358 t1.316 -3.514 q0 -2.128 -1.302 -3.5 t-3.374 -1.372 q-2.016 0 -3.304 1.358 t-1.316 3.514 z M47.404 16.772000000000002 l0 3.724 l3.864 0 l0 1.848 l-3.864 0 l0 7 q0 1.568 0.504 2.072 t1.456 0.504 q1.092 0 1.932 -0.448 l0.084 1.988 q-1.12 0.476 -2.548 0.476 q-2.016 0 -2.814 -0.994 t-0.798 -3.262 l0 -7.336 l-2.856 0 l0 -1.848 l2.856 0 l0 -3.724 l2.184 0 z M55.24400000000001 13.776 q0.644 0 1.12 0.462 t0.476 1.134 q0 0.7 -0.448 1.148 t-1.148 0.448 t-1.148 -0.448 t-0.448 -1.148 q0 -0.672 0.476 -1.134 t1.12 -0.462 z M56.336000000000006 20.496000000000002 l0 13.104 l-2.184 0 l0 -13.104 l2.184 0 z M61.43200000000001 20.496000000000002 l4.088 10.276 l0.056 0 l3.892 -10.276 l2.352 0 l-5.18 13.104 l-2.408 0 l-5.348 -13.104 l2.548 0 z M79.212 20.160000000000004 q2.856 0 4.158 1.344 t1.33 4.06 l0 5.88 q0 0.84 0.196 2.156 l-2.1 0 q-0.14 -0.252 -0.14 -1.96 l-0.056 0 q-1.484 2.24 -4.312 2.296 q-2.156 0 -3.514 -1.078 t-1.358 -2.814 q0 -2.38 1.96 -3.486 t6.132 -1.106 l1.008 0 l0 -0.364 q0 -2.856 -3.248 -2.912 q-2.352 0 -3.892 1.428 l-1.372 -1.428 q2.016 -1.96 5.208 -2.016 z M75.76800000000001 29.82 q0 2.212 2.884 2.268 q1.708 0 2.786 -1.092 t1.078 -3.192 l0 -0.504 l-2.408 0 q-1.932 0 -3.122 0.616 t-1.218 1.904 z M92.00800000000001 16.772000000000002 l0 3.724 l3.864 0 l0 1.848 l-3.864 0 l0 7 q0 1.568 0.504 2.072 t1.456 0.504 q1.092 0 1.932 -0.448 l0.084 1.988 q-1.12 0.476 -2.548 0.476 q-2.016 0 -2.814 -0.994 t-0.798 -3.262 l0 -7.336 l-2.856 0 l0 -1.848 l2.856 0 l0 -3.724 l2.184 0 z M104.524 20.160000000000004 q2.912 0 4.55 1.834 t1.666 5.194 l0 0.532 l-10.584 0 q0.168 1.82 1.372 2.996 t2.94 1.204 q2.66 0 4.144 -1.988 l1.652 1.288 q-1.036 1.344 -2.436 2.03 t-3.36 0.686 q-2.996 0 -4.816 -1.946 t-1.848 -4.942 q0 -2.968 1.862 -4.9 t4.858 -1.988 z M108.388 25.872 q-0.084 -1.708 -1.106 -2.702 t-2.87 -0.994 q-1.68 0 -2.828 0.952 t-1.428 2.744 l8.232 0 z"></path></g><g id="SvgjsG2314" rel="mainfill" name="symbol" xmlns:name="symbol_mainfill" fill="#ed0624" transform="translate(-18.040916590368628, -78.69660069190545) scale(2.3356958073971206)"><g xmlns="http://www.w3.org/2000/svg"><path d="M26.347,70.941c8.007,0,16.38-5.87,23.519-11.615l0.316-0.256c7.829,6.357,15.983,11.871,23.859,11.871   c10.275,0,18.631-8.355,18.631-18.624c0-10.268-8.355-18.624-18.631-18.624c-8.103,0-16.427,5.855-23.498,11.578l-0.307,0.248   c-7.806-6.454-15.962-11.826-23.89-11.826c-10.266,0-18.622,8.355-18.622,18.624C7.725,62.585,16.081,70.941,26.347,70.941z    M26.347,37.761c7.81,0,16.898,6.991,24.759,13.828c10.322,8.98,15.616,12.917,22.936,12.917c6.726,0,12.194-5.466,12.194-12.189   c0-6.72-5.469-12.188-12.194-12.188c-5.708,0-10.132,2.597-17.269,8.292l-1.67-1.432c0,0-0.062-0.051-0.086-0.072   c5.819-4.546,12.849-9.157,19.024-9.157c8.033,0,14.559,6.53,14.559,14.556c0,8.027-6.525,14.557-14.559,14.557   c-8.342,0-18.235-8.333-24.776-13.85C38.938,44.317,33.65,40.129,26.347,40.129c-6.717,0-12.186,5.467-12.186,12.188   c0,6.723,5.469,12.189,12.186,12.189c5.818,0,10.231-2.585,17.284-8.252l1.711,1.432c0,0,0.013,0.01,0.019,0.015   c-6.11,4.755-12.927,9.173-19.014,9.173c-8.024,0-14.552-6.53-14.552-14.557C11.795,44.291,18.322,37.761,26.347,37.761z    M58.321,52.384c7.115-5.76,10.936-8.187,15.72-8.187c4.48,0,8.125,3.643,8.125,8.119c0,4.479-3.645,8.122-8.125,8.122   C69.343,60.439,65.468,58.3,58.321,52.384z M42.043,52.321c-6.876,5.597-10.838,8.118-15.696,8.118   c-4.472,0-8.116-3.643-8.116-8.122c0-4.477,3.645-8.119,8.116-8.119C31.027,44.198,34.928,46.529,42.043,52.321z"></path></g></g></svg>